<svg id="Layer_1" data-name="Layer 1" xmlns="http://www.w3.org/2000/svg" viewBox="0 0 1920 1920"><rect width="1920" height="1920" rx="379.18182" style="fill:#2e1010"/><text transform="translate(104 1583.35023)" style="font-size:407.79913330078125px;fill:none;stroke:red;stroke-miterlimit:10;stroke-width:10.97632884979248px;font-family:BlackRolmer-Outline, Black Rolmer;letter-spacing:0.034765267839088954em">H<tspan x="219.27148" y="0" style="letter-spacing:0.02500081944136998em">ash</tspan></text><text transform="translate(990.33984 1588.00452)" style="font-size:248.8479766845703px;fill:red;font-family:BlockatDEMO-Regular, Blockat DEMO">iNfinite</text><path d="M1507.8151,529.14582a73.18162,73.18162,0,0,0-71.10228,55.83289l-1.63421,9.28108-78.49293,431.2478c-12.45213,70.71193-39.25859,86.05441-111.05612,86.05441H826.06313a2.7637,2.7637,0,0,1-2.71967-3.24415l15.47663-87.10325a65.63127,65.63127,0,0,1,64.56521-54.14992l91.22547.25615a2.77436,2.77436,0,0,1,2.71967,3.24415l-12.2691,69.13868a2.76367,2.76367,0,0,0,2.71967,3.24408h141.96055a2.761,2.761,0,0,0,2.71966-2.28063l12.61069-71.06565a2.75947,2.75947,0,0,1,2.70746-2.28063l68.49219-.41462a2.7609,2.7609,0,0,0,2.71966-2.28071l24.77-140.44819a2.75739,2.75739,0,0,0-2.71967-3.24408l-65.89459-.04883a2.76368,2.76368,0,0,1-2.71967-3.24409l17.02546-95.59163a58.004,58.004,0,0,1,57.06476-47.83244l96.59163-.01213a2.76091,2.76091,0,0,0,2.71967-2.28071l24.77-140.44819a2.75739,2.75739,0,0,0-2.71967-3.24408l-98.26262-.02442a38.61043,38.61043,0,0,1-38.039-45.03952l41.01488-243.15007a2.75524,2.75524,0,0,0-2.71966-3.21974l-669.95854-.81711-71.94373-.08538a90.7665,90.7665,0,0,0-89.46933,75.35857l-98.40881,570.513A73.13538,73.13538,0,1,0,484.23583,906.6217l81.0419-469.81122a66.45254,66.45254,0,0,1,65.51653-55.16213l466.17686.21952a2.75525,2.75525,0,0,1,2.71967,3.21974l-13.29358,78.871a76.8371,76.8371,0,0,1-75.822,64.04079l-80.81011-.07317a2.76371,2.76371,0,0,1-2.71974-3.24416l11.3544-63.89444a2.76368,2.76368,0,0,0-2.71967-3.24409H792.86587a2.761,2.761,0,0,0-2.71974,2.28064l-11.68371,65.69941a2.76091,2.76091,0,0,1-2.71967,2.28064l-70.80951-.061a2.78363,2.78363,0,0,0-2.73188,2.28063L676.84607,671.28926a2.76733,2.76733,0,0,0,2.71967,3.25629l69.12647-.04875a2.77742,2.77742,0,0,1,2.73187,3.24408l-16.31815,91.78651a61.79017,61.79017,0,0,1-60.882,50.99114l-93.68908-.07317A2.78362,2.78362,0,0,0,577.803,822.726L552.44768,963.99136a2.76733,2.76733,0,0,0,2.71966,3.25629l94.23791-.04875a42.366,42.366,0,0,1,41.7344,49.77155L674.33371,1111.562l-.19517,1.07325L649.5638,1253.99814a2.76526,2.76526,0,0,0,2.71967,3.232l665.99493.60979-.19532,1.14642h72.24862a90.78212,90.78212,0,0,0,89.40837-75.04154l99.70165-566.61024.805-4.56133a74.02461,74.02461,0,0,0,.74394-10.46405A73.16835,73.16835,0,0,0,1507.8151,529.14582ZM875.02978,817.4208l17.01325-95.799A57.2519,57.2519,0,0,1,948.3882,674.387l97.82351-.061a2.77745,2.77745,0,0,1,2.73187,3.24408l-17.0987,95.95757a57.24847,57.24847,0,0,1-56.40614,47.21036l-97.68929-.07317A2.7636,2.7636,0,0,1,875.02978,817.4208Z" style="fill:red"/></svg>